<?xml version="1.0" standalone="no"?>
<!DOCTYPE svg PUBLIC "-//W3C//DTD SVG 20010904//EN"
 "http://www.w3.org/TR/2001/REC-SVG-20010904/DTD/svg10.dtd">
<svg version="1.0" xmlns="http://www.w3.org/2000/svg"
 width="187.000000pt" height="185.000000pt" viewBox="0 0 187.000000 185.000000"
 preserveAspectRatio="xMidYMid meet">
<metadata>
Created by potrace 1.16, written by Peter Selinger 2001-2019
</metadata>
<g transform="translate(0.000000,185.000000) scale(0.100000,-0.100000)"
fill="#000000" stroke="none">
<path d="M870 1440 c-112 -24 -224 -111 -275 -214 -19 -40 -29 -80 -35 -138
-5 -58 -16 -105 -38 -156 l-31 -73 32 -19 c18 -11 38 -20 45 -20 7 0 12 -15
12 -40 0 -31 5 -43 24 -56 27 -17 67 -16 73 3 3 7 -8 13 -24 15 -21 2 -29 9
-31 28 -6 58 -12 69 -47 80 -42 14 -42 22 -11 103 14 36 26 92 29 133 7 124
80 232 195 290 52 26 66 29 162 29 98 0 109 -2 158 -30 118 -65 193 -187 195
-315 1 -68 -6 -93 -55 -196 -48 -102 -55 -159 -34 -260 15 -72 15 -88 4 -95
-7 -5 -84 -9 -170 -9 l-158 0 -6 40 -6 39 -102 3 c-101 3 -101 3 -106 30 -7
39 -80 91 -80 57 0 -6 11 -20 25 -31 14 -11 25 -28 25 -39 0 -10 9 -28 19 -38
17 -17 29 -18 105 -14 l86 6 0 -26 c0 -58 -4 -57 195 -57 235 0 228 -5 200
145 -19 96 -11 145 39 250 61 126 68 218 25 329 -66 175 -259 283 -439 246z"/>
<path d="M912 1277 c-26 -28 -28 -49 -4 -45 14 3 17 -6 20 -54 3 -68 -9 -74
-52 -29 -23 24 -25 29 -11 35 27 10 6 26 -36 26 l-39 0 0 -45 c0 -46 7 -54 28
-33 9 9 17 6 37 -12 40 -38 33 -50 -30 -50 -48 0 -55 2 -55 20 0 27 -22 25
-48 -3 -28 -29 -28 -38 1 -65 29 -27 47 -28 47 -2 0 18 7 20 55 20 64 0 70
-12 26 -54 -23 -22 -29 -25 -34 -12 -12 31 -27 15 -27 -29 l0 -45 45 0 c44 0
60 15 29 27 -13 5 -10 11 12 34 44 46 55 39 52 -33 -3 -54 -6 -63 -20 -60 -25
4 -22 -21 5 -46 29 -28 38 -28 65 1 28 30 29 51 2 44 -18 -5 -20 0 -20 58 0
35 4 66 8 69 5 3 23 -10 41 -28 26 -27 29 -34 17 -39 -31 -12 -15 -27 30 -27
l45 0 -3 42 c-3 40 -28 69 -28 32 0 -14 -7 -11 -35 16 -19 18 -32 37 -29 42 3
4 30 8 60 8 47 0 54 -2 54 -20 0 -27 16 -25 45 6 l25 26 -23 29 c-26 33 -47
37 -47 9 0 -18 -7 -20 -54 -20 -30 0 -57 4 -60 8 -3 5 8 22 25 38 23 22 32 26
38 15 15 -23 31 -2 31 40 l0 39 -45 0 c-33 0 -45 -4 -45 -15 0 -8 8 -15 17
-15 13 0 10 -7 -12 -30 -44 -46 -55 -40 -55 29 0 54 2 59 20 54 28 -7 26 18
-3 45 -29 28 -38 28 -65 -1z"/>
</g>
</svg>
